# xmcd
#
# Track frame offsets:
#  150
#  13101
#  27008
#  40856
#  51231
#  66236
#  80494
#  97975
#  112780
#
# Disc length: 1690 seconds
#
# Revision: 0
# Processed by: cddbd v1.5.2PL0 Copyright (c) Steve Scherf et al.
# Submitted via: AltoMP3_Maker 3.0
#
DISCID=66069809
DTITLE=Slim Dusty - Mack Tracks
DYEAR=1900
DGENRE=
TTITLE0=Pushin Time
TTITLE1=Big Old Mack
TTITLE2=Give Me The Road
TTITLE3=Roaring Throught The Night
TTITLE4=I'm Married To My Bulldog Mack 
TTITLE5=Road Train Blues
TTITLE6=The Worlds Last Truck Drivin Man
TTITLE7=Gonna Take My Dog For a Run
TTITLE8=Lights On The Hill
EXTD=
EXTT0=
EXTT1=
EXTT2=
EXTT3=
EXTT4=
EXTT5=
EXTT6=
EXTT7=
EXTT8=
PLAYORDER=
